<svg width="138" height="49" viewBox="0 0 138 49" fill="none" xmlns="http://www.w3.org/2000/svg">
<path d="M11.4545 1.45454L22.7045 36.8182H23.1364L34.4091 1.45454H45.3182L29.2727 48H16.5909L0.522727 1.45454H11.4545ZM91.0682 24.7273C91.0682 29.803 90.1061 34.1212 88.1818 37.6818C86.2727 41.2424 83.6667 43.9621 80.3636 45.8409C77.0758 47.7045 73.3788 48.6364 69.2727 48.6364C65.1364 48.6364 61.4242 47.697 58.1364 45.8182C54.8485 43.9394 52.25 41.2197 50.3409 37.6591C48.4318 34.0985 47.4773 29.7879 47.4773 24.7273C47.4773 19.6515 48.4318 15.3333 50.3409 11.7727C52.25 8.21212 54.8485 5.5 58.1364 3.63636C61.4242 1.75757 65.1364 0.81818 69.2727 0.81818C73.3788 0.81818 77.0758 1.75757 80.3636 3.63636C83.6667 5.5 86.2727 8.21212 88.1818 11.7727C90.1061 15.3333 91.0682 19.6515 91.0682 24.7273ZM81.0909 24.7273C81.0909 21.4394 80.5985 18.6667 79.6136 16.4091C78.6439 14.1515 77.2727 12.4394 75.5 11.2727C73.7273 10.1061 71.6515 9.52273 69.2727 9.52273C66.8939 9.52273 64.8182 10.1061 63.0455 11.2727C61.2727 12.4394 59.8939 14.1515 58.9091 16.4091C57.9394 18.6667 57.4545 21.4394 57.4545 24.7273C57.4545 28.0152 57.9394 30.7879 58.9091 33.0455C59.8939 35.303 61.2727 37.0152 63.0455 38.1818C64.8182 39.3485 66.8939 39.9318 69.2727 39.9318C71.6515 39.9318 73.7273 39.3485 75.5 38.1818C77.2727 37.0152 78.6439 35.303 79.6136 33.0455C80.5985 30.7879 81.0909 28.0152 81.0909 24.7273ZM114.858 48H98.358V1.45454H114.994C119.676 1.45454 123.706 2.38636 127.085 4.25C130.464 6.09848 133.063 8.75757 134.881 12.2273C136.714 15.697 137.631 19.8485 137.631 24.6818C137.631 29.5303 136.714 33.697 134.881 37.1818C133.063 40.6667 130.449 43.3409 127.04 45.2045C123.646 47.0682 119.585 48 114.858 48ZM108.199 39.5682H114.449C117.358 39.5682 119.805 39.053 121.79 38.0227C123.79 36.9773 125.29 35.3636 126.29 33.1818C127.305 30.9848 127.812 28.1515 127.812 24.6818C127.812 21.2424 127.305 18.4318 126.29 16.25C125.29 14.0682 123.797 12.4621 121.812 11.4318C119.828 10.4015 117.381 9.88636 114.472 9.88636H108.199V39.5682Z" fill="#0445B1"/>
</svg>
