<svg width="64" height="20" viewBox="0 0 64 20" fill="none" xmlns="http://www.w3.org/2000/svg">
<path fill-rule="evenodd" clip-rule="evenodd" d="M36.6298 13.7679H39.9151L41.1921 8.43535C41.3956 7.71255 41.5981 7.17733 41.8787 6.91902C42.5474 6.30412 44.3436 6.40041 44.3436 6.40041L45.0704 3.38567C43.9302 3.39165 42.1652 3.3704 41.0692 3.66988C40.4357 3.8432 39.7671 4.32927 39.3872 4.72471C38.6933 5.44685 38.2789 6.94127 38.2789 6.94127L36.6298 13.7679V13.7679ZM8.21594 6.11354H20.2251C20.9256 6.13114 21.4867 6.40008 21.7457 6.76065C22.0611 7.20024 22.3975 7.85565 21.8789 9.09242C21.3251 10.4129 20.336 10.808 19.3034 10.8388H17.1532L18.0397 7.12388H14.7328L11.7759 19.5278H15.0652L16.4437 13.7649C16.4437 13.7649 17.3996 13.7689 18.638 13.7696C19.5946 13.7493 20.7168 13.6368 21.7759 13.0853C22.9211 12.4893 23.7026 11.4946 24.1924 10.6041C24.6442 9.78235 24.9354 8.43668 25.0035 7.69595C25.0633 7.04785 25.1463 5.95949 24.3521 4.89868C23.9908 4.41593 23.199 3.8246 22.3968 3.63535C21.5209 3.42917 20.3001 3.41788 20.3001 3.41788H7.79926C5.87521 3.43581 4.85126 4.10084 4.27919 4.68586C3.66131 5.31836 3.34522 6.18858 3.34821 6.94658C3.3512 7.66474 3.54211 8.42805 3.95979 8.88856C4.33962 9.3069 4.97511 9.77073 6.23844 9.85507H8.43275C8.43275 9.85507 8.73589 9.86469 8.90289 9.93907C9.06459 10.0118 9.18378 10.2107 9.15556 10.4046C9.12103 10.6406 9.04367 10.9394 8.24251 10.972H2.00088L0.941406 13.7825H8.4291C9.42649 13.7696 11.2692 13.584 12.1129 12.1334C12.4269 11.5932 12.7068 10.5829 12.7171 9.83282C12.7278 9.07382 12.4661 8.56418 12.3124 8.30354C12.1099 7.95957 11.7261 7.56347 10.9561 7.30615C10.5554 7.17202 9.67948 7.14679 9.67948 7.14679H7.61798C7.21922 7.14679 6.91244 7.02659 6.95328 6.62817C6.97652 6.40173 7.15514 6.21481 7.37892 6.1494C7.54394 6.10059 8.21594 6.11354 8.21594 6.11354V6.11354ZM31.9679 5.56206C31.1515 5.57069 30.4433 5.88013 29.754 6.5445C29.0986 7.17634 28.7483 8.15911 28.6793 9.02635C28.6364 9.56256 28.7878 10.3093 29.1451 10.7651C29.4957 11.2127 30.2059 11.5523 30.8749 11.5354C31.8899 11.5102 32.5925 11.2001 33.1536 10.5855C33.8123 9.86436 34.2456 8.78264 34.2197 7.7577C34.2054 7.2185 34.0899 6.66901 33.6108 6.18924C33.1307 5.70948 32.4756 5.55675 31.9679 5.56206L32.3939 3.1174C33.7552 3.09981 35.2536 3.47233 36.2108 4.39501C37.1687 5.31769 37.3669 6.53919 37.3503 7.54122C37.3297 8.7926 36.8951 10.5125 35.3602 12.1682C34.0075 13.6268 31.6538 14.1936 30.0226 14.1195C28.3914 14.0455 27.1849 13.5295 26.299 12.6158C25.5231 11.8156 25.2439 10.881 25.2439 9.70034C25.2439 8.6578 25.5769 7.30483 26.5783 5.9731C27.7529 4.41095 30.0007 3.14861 32.3942 3.11773L31.9679 5.56206V5.56206ZM46.6774 0.470215H49.9893L49.2708 3.43614H51.7841L51.0929 6.37086H48.5795L47.8345 9.63361C47.7153 10.2983 47.8305 10.637 48.2073 10.8614C48.3624 10.954 48.8856 10.9942 48.8856 10.9942H56.0403C56.8385 10.9813 57.4112 10.9092 57.4364 10.3783C57.4637 9.83282 56.7854 9.84643 56.7854 9.84643H54.7501C53.686 9.79331 52.7948 9.50047 52.3695 9.04859C52.002 8.65814 51.6646 8.07777 51.6912 6.94724C51.7211 5.67096 52.3961 4.76621 52.6886 4.48698C52.9811 4.20775 54.0628 3.40958 55.6319 3.43614H63.0575L62.0246 6.10923H55.9334C55.5346 6.12251 55.353 6.18194 55.2421 6.32205C55.1266 6.46814 55.0708 6.6979 55.1488 6.88084C55.2215 7.05083 55.4018 7.12023 55.9068 7.14679H57.809C58.7798 7.19991 59.5869 7.35197 60.0697 7.75836C60.5099 8.1289 60.9343 8.60933 60.9343 9.84643C60.9343 11.2436 60.245 12.1487 59.7775 12.6261C59.1985 13.2174 58.3943 13.65 55.9872 13.7699H47.1568C46.1989 13.7563 45.4144 13.7965 44.6829 12.9588C43.9515 12.1211 44.1998 11.0742 44.2706 10.4892L46.6774 0.470215V0.470215Z" fill="#0445B1" stroke="#0445B1" stroke-width="0.332019"/>
</svg>
