<svg width="110" height="60" viewBox="0 0 110 60" fill="none" xmlns="http://www.w3.org/2000/svg">
<path d="M44.504 0.431999V59.696H52.632V0.431999H44.504ZM21.016 23.152V29.872H33.688V23.152H21.016ZM32.024 1.712V57.072H39.96V1.712H32.024ZM19.096 7.408V9.136C19.096 23.472 14.296 33.328 0.792 41.456L5.592 47.408C22.232 37.744 27.288 24.304 27.288 7.408H19.096ZM4.12 7.408V14.192H21.784V7.408H4.12ZM101.139 0.495998V33.968H109.715V0.495998H101.139ZM70.291 36.656V59.056H109.715V36.656H70.291ZM101.331 43.312V52.336H78.611V43.312H101.331ZM77.459 3.184C68.243 3.184 61.331 9.072 61.331 17.392C61.331 25.648 68.243 31.6 77.459 31.6C86.675 31.6 93.523 25.648 93.523 17.392C93.523 9.072 86.675 3.184 77.459 3.184ZM77.459 10.224C81.939 10.224 85.203 12.848 85.203 17.392C85.203 21.872 81.939 24.496 77.459 24.496C72.979 24.496 69.651 21.872 69.651 17.392C69.651 12.848 72.979 10.224 77.459 10.224Z" fill="#0445B1"/>
</svg>
